<svg xmlns="http://www.w3.org/2000/svg" width="644" height="644" viewBox="0 0 644 644" fill="none"><path d="M33.8936 321.635L46.0602 331.152C65.5709 346.409 97.3962 379.031 106.08 434.219L108.376 448.784L119.523 439.035C138.24 422.665 193.862 379.789 275.199 368.069C263.476 449.407 220.602 505.027 204.234 523.744L194.484 534.892L209.05 537.187C264.239 545.873 296.859 577.697 312.118 597.207L321.634 609.375L331.151 597.207C346.407 577.697 379.027 545.873 434.216 537.187L448.782 534.892L439.032 523.744C422.664 505.027 379.79 449.407 368.067 368.069C449.404 379.789 505.026 422.665 523.742 439.035L534.89 448.784L537.184 434.219C545.87 379.031 577.695 346.409 597.203 331.152L609.372 321.635L597.203 312.117C577.695 296.86 545.87 264.24 537.184 209.052L534.89 194.485L523.742 204.235C505.026 220.604 449.404 263.48 368.067 275.201C379.79 193.864 422.664 138.243 439.032 119.527L448.782 108.377L434.216 106.084C379.027 97.3959 346.407 65.5719 331.151 46.0625L321.634 33.8945L312.118 46.0625C296.859 65.5719 264.239 97.3959 209.05 106.084L194.484 108.377L204.234 119.527C220.602 138.243 263.476 193.864 275.199 275.201C193.862 263.48 138.24 220.604 119.523 204.235L108.376 194.485L106.08 209.052C97.3962 264.24 65.5709 296.86 46.0602 312.117L33.8936 321.635ZM80.7269 321.635C117.832 287.237 126.402 249.068 126.402 249.068C180.568 294.724 265.05 305.015 307.287 307.289C305.011 265.051 294.722 180.571 249.067 126.401C249.067 126.401 287.234 117.835 321.634 80.7279C356.032 117.835 394.199 126.401 394.199 126.401C348.544 180.571 338.255 265.051 335.979 307.289C378.216 305.015 462.698 294.724 516.866 249.068C516.866 249.068 525.432 287.237 562.539 321.635C525.432 356.033 516.866 394.201 516.866 394.201C462.698 348.545 378.216 338.255 335.979 335.98C338.255 378.219 348.544 462.699 394.199 516.868C394.199 516.868 356.032 525.435 321.634 562.541C287.234 525.435 249.067 516.868 249.067 516.868C294.722 462.699 305.011 378.219 307.287 335.98C265.05 338.255 180.568 348.545 126.402 394.201C126.402 394.201 117.832 356.033 80.7269 321.635Z" fill="#C3A677"></path><path d="M24 345.635C37.2548 345.635 48 334.89 48 321.635C48 308.38 37.2548 297.635 24 297.635C10.7452 297.635 0 308.38 0 321.635C0 334.89 10.7452 345.635 24 345.635Z" fill="#C3A677"></path><path d="M105.066 209.068C118.321 209.068 129.066 198.323 129.066 185.068C129.066 171.814 118.321 161.068 105.066 161.068C91.8116 161.068 81.0664 171.814 81.0664 185.068C81.0664 198.323 91.8116 209.068 105.066 209.068Z" fill="#C3A677"></path><path d="M105.066 482.201C118.321 482.201 129.066 471.456 129.066 458.201C129.066 444.946 118.321 434.201 105.066 434.201C91.8116 434.201 81.0664 444.946 81.0664 458.201C81.0664 471.456 91.8116 482.201 105.066 482.201Z" fill="#C3A677"></path><path d="M185.068 129.068C198.323 129.068 209.068 118.323 209.068 105.068C209.068 91.8135 198.323 81.0684 185.068 81.0684C171.814 81.0684 161.068 91.8135 161.068 105.068C161.068 118.323 171.814 129.068 185.068 129.068Z" fill="#C3A677"></path><path d="M185.068 562.201C198.323 562.201 209.068 551.456 209.068 538.201C209.068 524.946 198.323 514.201 185.068 514.201C171.814 514.201 161.068 524.946 161.068 538.201C161.068 551.456 171.814 562.201 185.068 562.201Z" fill="#C3A677"></path><path d="M321.634 48C334.889 48 345.634 37.2548 345.634 24C345.634 10.7452 334.889 0 321.634 0C308.379 0 297.634 10.7452 297.634 24C297.634 37.2548 308.379 48 321.634 48Z" fill="#C3A677"></path><path d="M321.634 643.27C334.889 643.27 345.634 632.524 345.634 619.27C345.634 606.015 334.889 595.27 321.634 595.27C308.379 595.27 297.634 606.015 297.634 619.27C297.634 632.524 308.379 643.27 321.634 643.27Z" fill="#C3A677"></path><path d="M458.198 129.068C471.453 129.068 482.198 118.323 482.198 105.068C482.198 91.8135 471.453 81.0684 458.198 81.0684C444.943 81.0684 434.198 91.8135 434.198 105.068C434.198 118.323 444.943 129.068 458.198 129.068Z" fill="#C3A677"></path><path d="M458.198 562.201C471.453 562.201 482.198 551.456 482.198 538.201C482.198 524.946 471.453 514.201 458.198 514.201C444.943 514.201 434.198 524.946 434.198 538.201C434.198 551.456 444.943 562.201 458.198 562.201Z" fill="#C3A677"></path><path d="M538.2 209.068C551.455 209.068 562.2 198.323 562.2 185.068C562.2 171.814 551.455 161.068 538.2 161.068C524.945 161.068 514.2 171.814 514.2 185.068C514.2 198.323 524.945 209.068 538.2 209.068Z" fill="#C3A677"></path><path d="M538.2 482.201C551.455 482.201 562.2 471.456 562.2 458.201C562.2 444.946 551.455 434.201 538.2 434.201C524.945 434.201 514.2 444.946 514.2 458.201C514.2 471.456 524.945 482.201 538.2 482.201Z" fill="#C3A677"></path><path d="M619.269 345.635C632.523 345.635 643.269 334.89 643.269 321.635C643.269 308.38 632.523 297.635 619.269 297.635C606.014 297.635 595.269 308.38 595.269 321.635C595.269 334.89 606.014 345.635 619.269 345.635Z" fill="#C3A677"></path></svg>